<svg xmlns="http://www.w3.org/2000/svg" width="375" viewBox="0 0 375 150" height="150" version="1.0"><defs><clipPath id="a"><path d="M 29.578125 24.515625 L 133.828125 24.515625 L 133.828125 128.765625 L 29.578125 128.765625 Z M 29.578125 24.515625"/></clipPath></defs><g clip-path="url(#a)"><path fill="#25B7D3" d="M 133.828125 76.640625 C 133.828125 47.859375 110.488281 24.515625 81.703125 24.515625 C 52.921875 24.515625 29.578125 47.859375 29.578125 76.640625 C 29.578125 105.425781 52.921875 128.765625 81.703125 128.765625 C 110.488281 128.765625 133.828125 105.425781 133.828125 76.640625 Z M 133.828125 76.640625"/></g><path fill="#FFF" d="M 58.617188 60.988281 C 58.617188 58.070312 59.5625 55.105469 61.429688 52.101562 C 63.300781 49.097656 66.054688 46.617188 69.644531 44.644531 C 73.238281 42.667969 77.441406 41.683594 82.25 41.683594 C 86.707031 41.683594 90.65625 42.5 94.058594 44.160156 C 97.484375 45.800781 100.109375 48.046875 101.980469 50.882812 C 103.847656 53.71875 104.773438 56.789062 104.773438 60.105469 C 104.773438 62.734375 104.25 65.023438 103.175781 66.976562 C 102.105469 68.953125 100.84375 70.652344 99.394531 72.082031 C 97.925781 73.511719 95.320312 75.925781 91.515625 79.308594 C 90.464844 80.253906 89.625 81.097656 88.996094 81.832031 C 88.363281 82.546875 87.902344 83.21875 87.585938 83.804688 C 87.273438 84.414062 87.042969 85.003906 86.875 85.613281 C 86.707031 86.222656 86.453125 87.273438 86.117188 88.785156 C 85.527344 91.980469 83.699219 93.597656 80.632812 93.597656 C 79.035156 93.597656 77.691406 93.070312 76.601562 92.019531 C 75.507812 90.96875 74.960938 89.414062 74.960938 87.355469 C 74.960938 84.773438 75.359375 82.523438 76.160156 80.632812 C 76.957031 78.742188 78.027344 77.082031 79.351562 75.65625 C 80.675781 74.226562 82.460938 72.523438 84.710938 70.550781 C 86.683594 68.828125 88.09375 67.523438 88.972656 66.640625 C 89.855469 65.757812 90.59375 64.792969 91.179688 63.699219 C 91.789062 62.628906 92.082031 61.453125 92.082031 60.191406 C 92.082031 57.734375 91.160156 55.652344 89.332031 53.953125 C 87.503906 52.25 85.128906 51.410156 82.25 51.410156 C 78.867188 51.410156 76.367188 52.269531 74.773438 53.972656 C 73.175781 55.675781 71.808594 58.195312 70.71875 61.515625 C 69.667969 65.003906 67.691406 66.726562 64.769531 66.726562 C 63.046875 66.726562 61.597656 66.117188 60.402344 64.898438 C 59.226562 63.722656 58.617188 62.417969 58.617188 60.988281 M 81.160156 111.582031 C 79.289062 111.582031 77.648438 110.972656 76.242188 109.753906 C 74.835938 108.535156 74.140625 106.832031 74.140625 104.648438 C 74.140625 102.714844 74.8125 101.074219 76.179688 99.753906 C 77.523438 98.429688 79.203125 97.777344 81.160156 97.777344 C 83.089844 97.777344 84.730469 98.449219 86.054688 99.753906 C 87.378906 101.074219 88.027344 102.714844 88.027344 104.648438 C 88.027344 106.8125 87.335938 108.492188 85.949219 109.730469 C 84.5625 110.972656 82.964844 111.582031 81.160156 111.582031"/><g fill="#FFF"><g><g><path d="M 33.636719 -2.664062 L 31.480469 -5.105469 C 32.957031 -6.976562 33.464844 -9.019531 33.464844 -11.910156 L 33.464844 -25.296875 C 33.464844 -34.261719 24.957031 -38.117188 18.207031 -38.117188 C 11.457031 -38.117188 3.0625 -34.261719 3.0625 -25.296875 L 3.0625 -11.910156 C 3.0625 -2.949219 11.457031 0.90625 18.207031 0.90625 C 20.648438 0.90625 23.03125 0.679688 25.410156 -0.339844 L 28.132812 2.4375 C 28.871094 3.175781 29.78125 3.0625 30.6875 2.15625 L 33.410156 -0.0585938 C 34.375 -1.019531 34.375 -1.984375 33.636719 -2.664062 Z M 24.617188 -24.5625 L 24.617188 -12.761719 C 24.617188 -9.132812 22.007812 -7.035156 18.265625 -7.035156 C 14.578125 -7.035156 11.96875 -9.132812 11.96875 -12.761719 L 11.96875 -24.5625 C 11.96875 -28.191406 14.578125 -30.289062 18.265625 -30.289062 C 22.007812 -30.289062 24.617188 -28.191406 24.617188 -24.5625 Z M 24.617188 -24.5625" transform="translate(144.618 71.86)"/></g></g></g><g fill="#FFF"><g><g><path d="M 32.105469 -37.324219 L 26.488281 -37.324219 C 25.46875 -37.324219 24.84375 -36.984375 24.84375 -35.679688 L 24.84375 -12.648438 C 24.84375 -9.074219 22.460938 -7.035156 18.71875 -7.035156 C 14.976562 -7.035156 12.648438 -9.074219 12.648438 -12.648438 L 12.648438 -35.679688 C 12.648438 -36.984375 12.023438 -37.324219 11.003906 -37.324219 L 5.386719 -37.324219 C 4.367188 -37.324219 3.742188 -36.984375 3.742188 -35.679688 L 3.742188 -11.402344 C 3.742188 -2.496094 11.96875 0.851562 18.71875 0.851562 C 25.46875 0.851562 33.75 -2.496094 33.75 -11.402344 L 33.75 -35.679688 C 33.75 -36.984375 33.125 -37.324219 32.105469 -37.324219 Z M 32.105469 -37.324219" transform="translate(184.437 71.86)"/></g></g></g><g fill="#FFF"><g><g><path d="M 20.421875 -7.769531 L 16.847656 -7.769531 L 16.847656 -29.4375 L 20.25 -29.4375 C 21.554688 -29.4375 21.894531 -30.0625 21.894531 -31.085938 L 21.894531 -35.679688 C 21.894531 -36.699219 21.554688 -37.324219 20.25 -37.324219 L 4.480469 -37.324219 C 3.175781 -37.324219 2.835938 -36.699219 2.835938 -35.679688 L 2.835938 -31.085938 C 2.835938 -30.0625 3.175781 -29.4375 4.480469 -29.4375 L 7.941406 -29.4375 L 7.941406 -7.769531 L 4.367188 -7.769531 C 3.0625 -7.769531 2.722656 -7.148438 2.722656 -6.125 L 2.722656 -1.644531 C 2.722656 -0.625 3.0625 0 4.367188 0 L 20.421875 0 C 21.726562 0 22.066406 -0.625 22.066406 -1.644531 L 22.066406 -6.125 C 22.066406 -7.148438 21.726562 -7.769531 20.421875 -7.769531 Z M 20.421875 -7.769531" transform="translate(225.107 71.86)"/></g></g></g><g fill="#FFF"><g><g><path d="M 28.476562 -7.941406 L 12.707031 -7.941406 L 27.90625 -29.042969 C 28.476562 -29.78125 28.644531 -30.515625 28.644531 -31.253906 L 28.644531 -35.679688 C 28.644531 -36.699219 28.304688 -37.324219 27 -37.324219 L 4.199219 -37.324219 C 2.894531 -37.324219 2.550781 -36.699219 2.550781 -35.679688 L 2.550781 -31.027344 C 2.550781 -30.007812 2.894531 -29.382812 4.199219 -29.382812 L 18.09375 -29.382812 L 2.78125 -8.226562 C 2.78125 -8.226562 2.042969 -7.375 2.042969 -6.070312 L 2.042969 -1.644531 C 2.042969 -0.285156 2.269531 0 3.742188 0 L 28.476562 0 C 29.78125 0 30.121094 -0.625 30.121094 -1.644531 L 30.121094 -6.296875 C 30.121094 -7.316406 29.78125 -7.941406 28.476562 -7.941406 Z M 28.476562 -7.941406" transform="translate(253.468 71.86)"/></g></g></g><g fill="#FFF"><g><g><path d="M 21.78125 -21.667969 C 19.511719 -22.574219 11.175781 -23.824219 11.175781 -27.285156 C 11.175781 -29.835938 14.292969 -30.574219 16.164062 -30.574219 C 17.867188 -30.574219 19.910156 -30.0625 20.988281 -29.042969 C 21.667969 -28.363281 21.953125 -27.90625 22.179688 -27.339844 C 22.460938 -26.601562 22.632812 -25.808594 23.710938 -25.808594 L 29.269531 -25.808594 C 30.574219 -25.808594 30.914062 -26.035156 30.914062 -27.398438 C 30.914062 -34.882812 23.03125 -38.175781 15.824219 -38.175781 C 8.734375 -37.890625 2.042969 -34.261719 2.042969 -26.886719 C 2.042969 -19.683594 7.316406 -17.414062 13.046875 -15.597656 C 17.867188 -14.066406 22.917969 -14.011719 22.917969 -10.835938 C 22.917969 -7.65625 20.421875 -6.976562 17.355469 -6.976562 C 15.257812 -6.976562 12.933594 -7.488281 11.796875 -8.847656 C 11.0625 -9.699219 10.777344 -10.4375 10.71875 -11.175781 C 10.605469 -12.59375 9.984375 -12.761719 8.679688 -12.761719 L 3.175781 -12.761719 C 1.871094 -12.761719 1.53125 -12.480469 1.53125 -11.175781 C 1.53125 -3.234375 9.699219 0.851562 16.789062 0.851562 C 25.523438 0.851562 31.878906 -3.007812 31.878906 -11.0625 C 31.878906 -18.773438 25.867188 -20.421875 21.78125 -21.667969 Z M 21.78125 -21.667969" transform="translate(144.618 118.922)"/></g></g></g><g fill="#FFF"><g><g><path d="M 37.664062 -37.378906 L 32.21875 -37.378906 C 30.347656 -37.378906 30.0625 -36.132812 29.667969 -35.453125 L 21.839844 -21.496094 L 14.066406 -35.453125 C 13.613281 -36.132812 13.386719 -37.378906 11.457031 -37.378906 L 5.84375 -37.378906 C 4.539062 -37.378906 4.199219 -36.757812 4.199219 -35.734375 L 4.199219 -1.644531 C 4.199219 -0.339844 4.820312 0 5.84375 0 L 11.457031 0 C 12.480469 0 13.101562 -0.339844 13.101562 -1.644531 L 13.101562 -20.875 L 18.832031 -10.949219 C 19.117188 -10.492188 19.570312 -9.757812 20.421875 -9.757812 L 23.257812 -9.757812 C 24.105469 -9.757812 24.617188 -10.492188 24.902344 -10.949219 L 30.574219 -20.875 L 30.574219 -1.644531 C 30.574219 -0.339844 31.199219 0 32.21875 0 L 37.664062 0 C 38.683594 0 39.308594 -0.339844 39.308594 -1.644531 L 39.308594 -35.734375 C 39.308594 -36.757812 38.96875 -37.378906 37.664062 -37.378906 Z M 37.664062 -37.378906" transform="translate(182.111 118.922)"/></g></g></g><g fill="#FFF"><g><g><path d="M 36.300781 -1.589844 L 23.765625 -35.566406 C 23.257812 -36.757812 22.6875 -37.324219 21.441406 -37.324219 L 15.996094 -37.324219 C 14.746094 -37.324219 14.125 -36.757812 13.671875 -35.566406 L 1.078125 -1.589844 C 0.792969 -0.90625 0.792969 0 2.042969 0 L 7.996094 0 C 9.246094 0 9.699219 -0.339844 10.152344 -1.703125 L 11.742188 -6.183594 L 25.640625 -6.183594 L 27.226562 -1.703125 C 27.679688 -0.339844 28.132812 0 29.382812 0 L 35.339844 0 C 36.585938 0 36.585938 -0.90625 36.300781 -1.589844 Z M 18.71875 -26.660156 L 22.972656 -14.125 L 14.464844 -14.125 Z M 18.71875 -26.660156" transform="translate(228.794 118.922)"/></g></g></g><g fill="#FFF"><g><g><path d="M 21.78125 -21.667969 C 19.511719 -22.574219 11.175781 -23.824219 11.175781 -27.285156 C 11.175781 -29.835938 14.292969 -30.574219 16.164062 -30.574219 C 17.867188 -30.574219 19.910156 -30.0625 20.988281 -29.042969 C 21.667969 -28.363281 21.953125 -27.90625 22.179688 -27.339844 C 22.460938 -26.601562 22.632812 -25.808594 23.710938 -25.808594 L 29.269531 -25.808594 C 30.574219 -25.808594 30.914062 -26.035156 30.914062 -27.398438 C 30.914062 -34.882812 23.03125 -38.175781 15.824219 -38.175781 C 8.734375 -37.890625 2.042969 -34.261719 2.042969 -26.886719 C 2.042969 -19.683594 7.316406 -17.414062 13.046875 -15.597656 C 17.867188 -14.066406 22.917969 -14.011719 22.917969 -10.835938 C 22.917969 -7.65625 20.421875 -6.976562 17.355469 -6.976562 C 15.257812 -6.976562 12.933594 -7.488281 11.796875 -8.847656 C 11.0625 -9.699219 10.777344 -10.4375 10.71875 -11.175781 C 10.605469 -12.59375 9.984375 -12.761719 8.679688 -12.761719 L 3.175781 -12.761719 C 1.871094 -12.761719 1.53125 -12.480469 1.53125 -11.175781 C 1.53125 -3.234375 9.699219 0.851562 16.789062 0.851562 C 25.523438 0.851562 31.878906 -3.007812 31.878906 -11.0625 C 31.878906 -18.773438 25.867188 -20.421875 21.78125 -21.667969 Z M 21.78125 -21.667969" transform="translate(269.124 118.922)"/></g></g></g><g fill="#FFF"><g><g><path d="M 33.011719 -37.324219 L 27.398438 -37.324219 C 26.375 -37.324219 25.753906 -36.984375 25.753906 -35.679688 L 25.753906 -22.859375 L 13.101562 -22.859375 L 13.101562 -35.679688 C 13.101562 -36.984375 12.535156 -37.324219 11.457031 -37.324219 L 5.84375 -37.324219 C 4.820312 -37.324219 4.199219 -36.984375 4.199219 -35.679688 L 4.199219 -1.644531 C 4.199219 -0.339844 4.820312 0 5.84375 0 L 11.457031 0 C 12.535156 0 13.101562 -0.339844 13.101562 -1.644531 L 13.101562 -14.464844 L 25.753906 -14.464844 L 25.753906 -1.644531 C 25.753906 -0.339844 26.375 0 27.398438 0 L 33.011719 0 C 34.035156 0 34.65625 -0.339844 34.65625 -1.644531 L 34.65625 -35.679688 C 34.65625 -36.984375 34.035156 -37.324219 33.011719 -37.324219 Z M 33.011719 -37.324219" transform="translate(306.617 118.922)"/></g></g></g></svg>